<?xml version="1.0" encoding="UTF-8"?>
<svg id="Layer_2" data-name="Layer 2" xmlns="http://www.w3.org/2000/svg" viewBox="0 0 1117.02 330.18">
  <defs>
    <style>
      .cls-1 {
        fill: #409;
      }

      .cls-2 {
        fill: #262626;
      }
    </style>
  </defs>
  <g id="Layer_1-2" data-name="Layer 1">
    <g>
      <path class="cls-2" d="m708.18,110.95c16.11,0,27.4,4.36,33.86,13.07,6.46,8.71,8.8,20.45,7.02,35.23l-6.92,54.89h-97.7l-.28,3.17c-.4,3.88-.38,7.75.06,11.55.34,3.13,1.72,5.96,3.92,8.08,2.62,2.34,5.83,3.96,9.35,4.73,5.31,1.18,10.81,1.71,16.36,1.57h64.29l-4.76,38.21h-72.48c-12.37.25-24.6-.92-36.45-3.51-8.22-1.69-15.61-5.63-21.41-11.4-5.01-5.54-8.21-12.53-9.23-20.15-1.34-9.89-1.47-20.01-.39-30.14l5.49-42.42c1.78-20.34,7.76-35.93,17.95-46.79,10.19-10.85,25.46-16.29,45.82-16.31l45.49.21Zm-59.81,70.58h54.33l2.76-19.26c1-8.89-3.22-13.33-12.68-13.33h-22.74c-6.89,0-11.83,1.83-14.86,5.44-3.22,4.03-5.09,8.91-5.31,13.85l-1.5,13.31Z"/>
      <path class="cls-2" d="m880.5,110.95c16.08,0,27.36,4.36,33.84,13.07,6.48,8.71,8.83,20.45,7.05,35.23l-6.95,54.89h-97.7l-.27,3.17c-.39,3.88-.37,7.75.05,11.55.34,3.13,1.72,5.96,3.92,8.08,2.62,2.34,5.83,3.96,9.35,4.73,5.32,1.18,10.82,1.71,16.39,1.57h64.28l-4.78,38.21h-72.45c-12.37.25-24.6-.92-36.45-3.51-8.2-1.7-15.59-5.64-21.38-11.4-5.01-5.55-8.22-12.53-9.26-20.15-1.33-9.89-1.46-20.01-.39-30.14l5.49-42.42c1.78-20.34,7.77-35.93,17.96-46.79,10.19-10.85,25.46-16.29,45.81-16.31l45.49.21Zm-59.83,70.58h54.36l2.76-19.26c1-8.89-3.23-13.33-12.7-13.33h-22.74c-6.86,0-11.83,1.83-14.86,5.44-3.2,4.04-5.06,8.91-5.29,13.85l-1.53,13.31Z"/>
      <path class="cls-2" d="m943.57,173.69c1.78-20.3,7.75-35.9,17.93-46.79,10.18-10.89,25.45-16.32,45.81-16.29h48.67l8.67-66.6,52.37-9.83-29.48,247.48h-100.55c-17.76,0-30.86-5.23-39.31-15.68-8.45-10.46-11.74-26.23-9.88-47.31l5.77-44.98Zm107.52-18.93l-36.21-.34c-6.86,0-11.82,1.81-14.86,5.43-3.21,4.03-5.08,8.89-5.31,13.83l-5.67,44.44c-.74,5.06.26,10.07,2.83,14.19,2.32,3.37,7.07,5.08,13.97,5.08h34.46l10.78-82.63Z"/>
      <polygon class="cls-2" points="420.78 281.63 449.03 48.19 590.73 48.19 584.88 94.8 494.28 94.8 488.16 144.46 575.2 144.46 569.35 191.09 482.66 191.09 471.91 281.53 420.78 281.63"/>
      <path class="cls-1" d="m222.89,0c-34.07.89-66.73,13.63-92.38,35.97-1.86,1.62-4.21,2.55-6.67,2.55H58.24c-6.59.32-12.92,2.72-18.07,6.86-5.15,4.14-8.86,9.8-10.59,16.18-3.13,12.71,4.64,23.01,17.33,23.01h30.29c7.08,0,11.9,7.07,9.43,13.71-.02.06-.05.13-.07.2-1.46,3.93-5.24,6.52-9.43,6.52H29.37c-12.69,0-25.51,10.44-28.66,23.04-3.16,12.6,4.64,23.01,17.36,23.01h51.34c5.07,0,9.31,3.75,10,8.77.08.55.15,1.09.24,1.64.9,6.05-3.89,11.46-10.02,11.46h-20.46c-12.7,0-25.51,10.44-28.67,23.01-3.16,12.58,4.66,23.04,17.36,23.04h52.4c4.03,0,7.63,2.41,9.25,6.1,6.66,15.13,14.34,29.8,22.97,43.9,7.89,13.14,16.82,25.63,26.72,37.34,7.17,8.38,14.93,18.45,26.07,22.54,2.32.82,4.76,1.27,7.22,1.33,2.57-.08,5.11-.53,7.56-1.33,12.04-4.09,22.28-14.16,31.48-22.54,12.73-11.67,24.71-24.15,35.86-37.34,19.07-22.11,36.12-45.88,50.95-71.03,12.25-21.08,23.95-44.36,26.82-67.97C343.79,58.76,293.67,1.02,222.89,0m54.06,105.18c-.99,0-1.97-.02-2.95-.05-3.2-.08-6.4.14-9.6.05-5.28-.15-10.56-.14-15.84-.1-5.21.03-10.43.14-15.64.14-7.48.29-15.05,1.96-21.49,5.92-6.01,3.7-11.05,9.72-12.73,16.69-2.32,9.33,1.44,17.35,8.79,20.89,2.57,1.24,5.58,1.94,8.93,1.94h54.21c7.03,0,13.28,4.81,14.27,11.92,1.8,12.86-11.01,27.93-17.81,37.75-9.14,13.21-19.2,25.81-30.12,37.58-6.95,7.49-14.28,14.62-21.95,21.37-5.58,4.99-11.7,10.15-18.74,12.5-1.69.55-3.44.85-5.21.91-.52-.01-1.03-.1-1.54-.16-1.19-.14-2.38-.36-3.51-.75-7.82-2.79-13.19-9.65-18.24-15.37-9.49-11.14-17.86-23.18-24.99-35.96-6.6-11.45-12.15-23.48-16.58-35.93-5.21-14.93-10.06-31.65-8-48.45,5.9-48.08,49.86-87.19,98.89-88.66.52-.01,1.04-.05,1.56-.06,15.75-.21,32.05,4.78,45.15,13.44,9.76,6.46,19.21,15.82,24.67,26.3,1.64,3.14,2.69,6.87,1.7,10.38-.81,2.86-2.94,5.08-5.6,6.33-2.39,1.13-5,1.36-7.61,1.36"/>
    </g>
  </g>
</svg>